<mxfile host="app.diagrams.net" modified="2023-02-22T12:58:30.069Z" agent="5.0 (X11; Ubuntu)" etag="d1YAcqW8t36os22u_OIO" version="20.8.22" type="github">
  <diagram name="Page-1" id="58cdce13-f638-feb5-8d6f-7d28b1aa9fa0">
    <mxGraphModel dx="1133" dy="663" grid="1" gridSize="10" guides="1" tooltips="1" connect="1" arrows="1" fold="1" page="1" pageScale="1" pageWidth="1100" pageHeight="850" background="none" math="0" shadow="0">
      <root>
        <mxCell id="0" />
        <mxCell id="1" parent="0" />
        <mxCell id="a3e21L48zFwgS-DFUn2O-3" value="" style="edgeStyle=orthogonalEdgeStyle;rounded=0;orthogonalLoop=1;jettySize=auto;html=1;" edge="1" parent="1" target="a3e21L48zFwgS-DFUn2O-2">
          <mxGeometry relative="1" as="geometry">
            <mxPoint x="425" y="60" as="sourcePoint" />
          </mxGeometry>
        </mxCell>
        <mxCell id="a3e21L48zFwgS-DFUn2O-6" value="" style="edgeStyle=orthogonalEdgeStyle;rounded=0;orthogonalLoop=1;jettySize=auto;html=1;" edge="1" parent="1" source="a3e21L48zFwgS-DFUn2O-2" target="a3e21L48zFwgS-DFUn2O-4">
          <mxGeometry relative="1" as="geometry" />
        </mxCell>
        <mxCell id="a3e21L48zFwgS-DFUn2O-7" value="База данных неактуальна" style="edgeLabel;html=1;align=center;verticalAlign=middle;resizable=0;points=[];" vertex="1" connectable="0" parent="a3e21L48zFwgS-DFUn2O-6">
          <mxGeometry x="-0.3391" y="2" relative="1" as="geometry">
            <mxPoint x="24" y="2" as="offset" />
          </mxGeometry>
        </mxCell>
        <mxCell id="a3e21L48zFwgS-DFUn2O-2" value="Инициализация источников данных" style="rounded=1;whiteSpace=wrap;html=1;" vertex="1" parent="1">
          <mxGeometry x="365" y="100" width="120" height="50" as="geometry" />
        </mxCell>
        <mxCell id="a3e21L48zFwgS-DFUn2O-22" style="edgeStyle=orthogonalEdgeStyle;rounded=0;orthogonalLoop=1;jettySize=auto;html=1;exitX=0.5;exitY=1;exitDx=0;exitDy=0;entryX=0.75;entryY=1;entryDx=0;entryDy=0;" edge="1" parent="1" source="a3e21L48zFwgS-DFUn2O-4" target="a3e21L48zFwgS-DFUn2O-2">
          <mxGeometry relative="1" as="geometry" />
        </mxCell>
        <mxCell id="a3e21L48zFwgS-DFUn2O-23" value="База данных обновлена" style="edgeLabel;html=1;align=center;verticalAlign=middle;resizable=0;points=[];" vertex="1" connectable="0" parent="a3e21L48zFwgS-DFUn2O-22">
          <mxGeometry x="0.1543" y="5" relative="1" as="geometry">
            <mxPoint y="-10" as="offset" />
          </mxGeometry>
        </mxCell>
        <mxCell id="a3e21L48zFwgS-DFUn2O-4" value="Обновление базы даных" style="rounded=1;whiteSpace=wrap;html=1;" vertex="1" parent="1">
          <mxGeometry x="700" y="95" width="120" height="60" as="geometry" />
        </mxCell>
        <mxCell id="a3e21L48zFwgS-DFUn2O-24" value="Выбарана тема" style="edgeStyle=orthogonalEdgeStyle;rounded=0;orthogonalLoop=1;jettySize=auto;html=1;exitX=1;exitY=0.5;exitDx=0;exitDy=0;" edge="1" parent="1" source="a3e21L48zFwgS-DFUn2O-27" target="a3e21L48zFwgS-DFUn2O-19">
          <mxGeometry x="0.0714" relative="1" as="geometry">
            <mxPoint x="490" y="350" as="sourcePoint" />
            <mxPoint x="740" y="290" as="targetPoint" />
            <Array as="points">
              <mxPoint x="485" y="390" />
              <mxPoint x="530" y="390" />
              <mxPoint x="530" y="290" />
              <mxPoint x="750" y="290" />
            </Array>
            <mxPoint as="offset" />
          </mxGeometry>
        </mxCell>
        <mxCell id="a3e21L48zFwgS-DFUn2O-28" value="&lt;div&gt;Темы загружены в репозиторий&lt;/div&gt;" style="edgeStyle=orthogonalEdgeStyle;rounded=0;orthogonalLoop=1;jettySize=auto;html=1;entryX=0.5;entryY=0;entryDx=0;entryDy=0;" edge="1" parent="1" source="a3e21L48zFwgS-DFUn2O-16" target="a3e21L48zFwgS-DFUn2O-27">
          <mxGeometry relative="1" as="geometry" />
        </mxCell>
        <mxCell id="a3e21L48zFwgS-DFUn2O-16" value="Загрузка списка тем" style="rounded=1;whiteSpace=wrap;html=1;" vertex="1" parent="1">
          <mxGeometry x="365" y="230" width="120" height="60" as="geometry" />
        </mxCell>
        <mxCell id="a3e21L48zFwgS-DFUn2O-17" value="Источники данных готовы" style="endArrow=classic;html=1;rounded=0;exitX=0.5;exitY=1;exitDx=0;exitDy=0;entryX=0.5;entryY=0;entryDx=0;entryDy=0;" edge="1" parent="1" source="a3e21L48zFwgS-DFUn2O-2" target="a3e21L48zFwgS-DFUn2O-16">
          <mxGeometry relative="1" as="geometry">
            <mxPoint x="340" y="250" as="sourcePoint" />
            <mxPoint x="425" y="210" as="targetPoint" />
          </mxGeometry>
        </mxCell>
        <mxCell id="a3e21L48zFwgS-DFUn2O-26" value="&lt;div&gt;Фразы загружены &lt;br&gt;&lt;/div&gt;&lt;div&gt;в репозиторий фраз&lt;/div&gt;" style="edgeStyle=orthogonalEdgeStyle;rounded=0;orthogonalLoop=1;jettySize=auto;html=1;" edge="1" parent="1" source="a3e21L48zFwgS-DFUn2O-19" target="a3e21L48zFwgS-DFUn2O-27">
          <mxGeometry x="-0.1515" relative="1" as="geometry">
            <mxPoint x="490" y="400" as="targetPoint" />
            <Array as="points">
              <mxPoint x="750" y="430" />
              <mxPoint x="530" y="430" />
              <mxPoint x="530" y="400" />
            </Array>
            <mxPoint as="offset" />
          </mxGeometry>
        </mxCell>
        <mxCell id="a3e21L48zFwgS-DFUn2O-19" value="Загрузка списка фраз для темы" style="rounded=1;whiteSpace=wrap;html=1;" vertex="1" parent="1">
          <mxGeometry x="690" y="340" width="120" height="60" as="geometry" />
        </mxCell>
        <mxCell id="a3e21L48zFwgS-DFUn2O-32" value="&lt;div&gt;Запрос на звуковое&lt;/div&gt;&lt;div&gt;&amp;nbsp;воспроизведение фразы&lt;/div&gt;" style="edgeStyle=orthogonalEdgeStyle;rounded=0;orthogonalLoop=1;jettySize=auto;html=1;entryX=0.5;entryY=0.083;entryDx=0;entryDy=0;entryPerimeter=0;exitX=0.5;exitY=1;exitDx=0;exitDy=0;" edge="1" parent="1" source="a3e21L48zFwgS-DFUn2O-27" target="a3e21L48zFwgS-DFUn2O-29">
          <mxGeometry x="-0.2184" y="-25" relative="1" as="geometry">
            <mxPoint x="760" y="420" as="targetPoint" />
            <mxPoint x="760" y="380" as="sourcePoint" />
            <mxPoint as="offset" />
          </mxGeometry>
        </mxCell>
        <mxCell id="a3e21L48zFwgS-DFUn2O-37" value="Приложение закрыто" style="edgeStyle=orthogonalEdgeStyle;rounded=0;orthogonalLoop=1;jettySize=auto;html=1;exitX=0;exitY=0.5;exitDx=0;exitDy=0;entryX=1;entryY=0.5;entryDx=0;entryDy=0;" edge="1" parent="1" source="a3e21L48zFwgS-DFUn2O-27" target="a3e21L48zFwgS-DFUn2O-36">
          <mxGeometry relative="1" as="geometry">
            <Array as="points">
              <mxPoint x="300" y="395" />
              <mxPoint x="300" y="395" />
            </Array>
          </mxGeometry>
        </mxCell>
        <mxCell id="a3e21L48zFwgS-DFUn2O-27" value="Ожидание" style="rounded=1;whiteSpace=wrap;html=1;" vertex="1" parent="1">
          <mxGeometry x="365" y="365" width="120" height="60" as="geometry" />
        </mxCell>
        <mxCell id="a3e21L48zFwgS-DFUn2O-34" style="edgeStyle=orthogonalEdgeStyle;rounded=0;orthogonalLoop=1;jettySize=auto;html=1;exitX=1;exitY=0.5;exitDx=0;exitDy=0;entryX=1;entryY=0.75;entryDx=0;entryDy=0;" edge="1" parent="1" source="a3e21L48zFwgS-DFUn2O-29" target="a3e21L48zFwgS-DFUn2O-27">
          <mxGeometry relative="1" as="geometry" />
        </mxCell>
        <mxCell id="a3e21L48zFwgS-DFUn2O-35" value="&lt;div&gt;Звуковой файл загружен&lt;/div&gt;&lt;div&gt;&amp;nbsp;в репозиторий звуков&lt;/div&gt;" style="edgeLabel;html=1;align=center;verticalAlign=middle;resizable=0;points=[];" vertex="1" connectable="0" parent="a3e21L48zFwgS-DFUn2O-34">
          <mxGeometry x="-0.1104" y="1" relative="1" as="geometry">
            <mxPoint x="46" y="-2" as="offset" />
          </mxGeometry>
        </mxCell>
        <mxCell id="a3e21L48zFwgS-DFUn2O-29" value="Загрузка звукового файла с сервера" style="rounded=1;whiteSpace=wrap;html=1;" vertex="1" parent="1">
          <mxGeometry x="365" y="510" width="120" height="55" as="geometry" />
        </mxCell>
        <mxCell id="a3e21L48zFwgS-DFUn2O-36" value="" style="ellipse;html=1;shape=endState;fillColor=#000000;strokeColor=#ff0000;" vertex="1" parent="1">
          <mxGeometry x="200" y="380" width="30" height="30" as="geometry" />
        </mxCell>
        <mxCell id="a3e21L48zFwgS-DFUn2O-39" value="" style="ellipse;html=1;shape=startState;fillColor=#000000;strokeColor=#ff0000;" vertex="1" parent="1">
          <mxGeometry x="410" y="40" width="30" height="30" as="geometry" />
        </mxCell>
      </root>
    </mxGraphModel>
  </diagram>
</mxfile>
